<svg xmlns="http://www.w3.org/2000/svg">
	<g>
		<path class="st0" d="M178,25.7h-4.1v4.2C175,28.3,176.4,26.9,178,25.7z"/>
		<path class="st0" d="M171.7,3.8c-2.1,0.1-4.2,0.6-6.1,1.3V13l-5.1-5.1c-1.7,1.2-3.1,2.7-4.3,4.3l5.1,5.1h-7.9    c-0.7,1.9-1.2,4-1.3,6.1h19.7V3.8z"/>
		<path class="st0" d="M193.3,21.5c-0.2-1.4-0.6-2.8-1.1-4.2h-8.1l5.2-5.2c-1.2-1.6-2.7-3.1-4.4-4.3l-5,5V5.1    c-1.9-0.7-4-1.2-6.1-1.3v19.7h7.8c2.7-1.3,5.7-2,8.8-2H193.3z"/>
		<path class="st0" d="M171.7,33.6v-7.9H152c0.1,2.2,0.6,4.2,1.3,6.1h7.7l-5,5c1.2,1.7,2.7,3.1,4.3,4.4l5.2-5.2v8.1    c1.3,0.5,2.7,0.8,4.2,1.1l0-2.8C169.7,39.2,170.4,36.2,171.7,33.6z"/>
		<path class="st1" d="M189.5,37c-1.2,1.7-2.7,3.1-4.3,4.3l-0.1-0.1c-1.5,1.1-3.2,2-5,2.7v0.2c-1.3,0.5-2.6,0.8-4,1v6    c0.4-0.4,0.8-0.7,1.2-1c0,0,0,0,0.1,0c0.1-0.1,0.2-0.2,0.4-0.3c0,0,0,0,0,0c0.4-0.3,0.8-0.6,1.2-0.8c0,0,0,0,0,0    c0.1-0.1,0.3-0.2,0.4-0.3l0.1,0c0.4-0.3,0.8-0.5,1.2-0.7c0,0,0,0,0,0c0.1-0.1,0.3-0.1,0.4-0.2c0,0,0.1,0,0.1,0    c0.6-0.3,1.1-0.5,1.7-0.8c0,0,0.1,0,0.1,0c0.1-0.1,0.3-0.1,0.4-0.2c0,0,0,0,0.1,0c0.4-0.2,0.9-0.3,1.3-0.4c0,0,0.1,0,0.1,0    c0.1,0,0.3-0.1,0.4-0.1c0,0,0.1,0,0.1,0c0.4-0.1,0.9-0.2,1.3-0.3c0.1,0,0.1,0,0.2,0c0.1,0,0.3,0,0.4-0.1c0.1,0,0.1,0,0.2,0    c0,0,0,0,0,0v0h0.1c0.1,0,0.2,0,0.3,0c0,0,0,0,0.1,0c0.3,0,0.6-0.1,0.8-0.1c0.1,0,0.1,0,0.2,0c0.1,0,0.2,0,0.4,0    c0.1,0,0.2,0,0.2,0c0.1,0,0.2,0,0.4,0c0.1,0,0.2,0,0.3,0c0.1,0,0.2,0,0.3,0h0c0.1,0,0.2,0,0.3,0l1.5,0c4.9,0,8.8-4.3,8.8-9.2v-8.5    c0,0-3,0-7.7,0c-0.2,1.5-0.6,2.9-1.1,4.2h-0.1C191.5,33.7,190.5,35.4,189.5,37L189.5,37z"/>
		<path class="st1" d="M193.3,27.6C193.3,27.6,193.3,27.6,193.3,27.6c-0.3,1.5-0.7,2.9-1.2,4.2h0.1    C192.8,30.5,193.1,29.1,193.3,27.6z"/>
		<path class="st1" d="M189.5,37L189.5,37c-1.3,1.6-2.8,3-4.4,4.3l0.1,0.1C186.8,40.1,188.3,38.6,189.5,37z"/>
		<path class="st1" d="M180,44c-1.3,0.5-2.6,0.8-4,1.1v0.1c1.4-0.2,2.7-0.6,4-1V44z"/>
		<path class="st2" d="M193.3,21.5h-2.8c-3.2,0-6.1,0.7-8.8,2c-1.3,0.6-2.5,1.4-3.7,2.2c-1.6,1.2-3,2.6-4.1,4.2    c-0.4,0.5-0.8,1.1-1.1,1.6c-0.4,0.7-0.8,1.3-1.1,2c-1.3,2.7-2,5.7-2,8.8l0,2.8l0,6.3c-3.1-3-7.1-5.1-11.6-5.8c0,0-1.9-0.2-2.9-0.2    h0c0,0-0.1,0-0.1,0v0c-1,0-3.1,0.2-3.1,0.2v6c0.9-0.2,1.8-0.3,2.8-0.3c8.2,0,14.8,6.6,15,14.8v3.2h6.3v-3.4    c0.1-8.2,6.7-14.8,15-14.8h1.2c8.2,0,14.9-6.7,14.9-14.9V21.5H193.3z M180.1,31.9c1.9-1.9,4.2-3.2,6.9-3.9    c-0.3,1.4-0.9,2.6-1.5,3.8c-0.1,0.2-0.3,0.5-0.4,0.7c-0.6,0.9-1.2,1.6-1.9,2.4c-0.7,0.7-1.6,1.4-2.4,2c-0.2,0.1-0.4,0.3-0.7,0.4    c-1.2,0.7-2.4,1.2-3.7,1.5C176.9,36.1,178.3,33.8,180.1,31.9z M176,45c1.4-0.2,2.7-0.6,4-1.1c1.8-0.7,3.5-1.6,5-2.7    c1.7-1.2,3.1-2.7,4.3-4.3c1.1-1.5,2.1-3.2,2.8-5c0.5-1.4,0.9-2.8,1.1-4.2c0,0,0,0,0.1,0c4.8,0,7.7,0,7.7,0v8.5    c0,4.9-4,9.2-8.8,9.2l-1.5,0c-0.1,0-0.2,0-0.3,0h0c-0.1,0-0.2,0-0.3,0c-0.1,0-0.2,0-0.3,0c-0.1,0-0.2,0-0.4,0c-0.1,0-0.2,0-0.2,0    c-0.1,0-0.2,0-0.4,0c-0.1,0-0.1,0-0.2,0c-0.3,0-0.6,0.1-0.8,0.1c0,0,0,0-0.1,0c-0.1,0-0.2,0-0.3,0h-0.1v0c0,0,0,0,0,0    c-0.1,0-0.1,0-0.2,0c-0.1,0-0.3,0-0.4,0.1c-0.1,0-0.1,0-0.2,0c-0.4,0.1-0.9,0.2-1.3,0.3c0,0-0.1,0-0.1,0c-0.1,0-0.3,0.1-0.4,0.1    c0,0-0.1,0-0.1,0c-0.5,0.1-0.9,0.3-1.3,0.4c0,0,0,0-0.1,0c-0.1,0.1-0.3,0.1-0.4,0.2c0,0-0.1,0-0.1,0c-0.6,0.2-1.2,0.5-1.7,0.8    c0,0-0.1,0-0.1,0c-0.1,0.1-0.3,0.1-0.4,0.2c0,0,0,0,0,0c-0.4,0.2-0.8,0.5-1.2,0.7l-0.1,0c-0.1,0.1-0.3,0.2-0.4,0.3c0,0,0,0,0,0    c-0.4,0.3-0.8,0.6-1.2,0.8c0,0,0,0,0,0c-0.1,0.1-0.2,0.2-0.4,0.3c0,0,0,0-0.1,0c-0.4,0.3-0.8,0.7-1.2,1v-6V45z"/>
	</g>
	<g>
		<path class="st3" d="M103,29.4c-0.5,0-0.9,0-1.4,0c-6.7,0-13.1,1.1-19.1,3.2c0.8,2,2,3.8,3.3,5.4c4.4-1.4,9-2.3,13.8-2.5    c0.5-1.4,1.1-2.7,1.9-4C101.9,30.8,102.4,30.1,103,29.4z"/>
		<path class="st3" d="M98.9,38c-3.4,0.4-6.5,1.7-9.2,3.5c2.1,1.5,4.5,2.6,7,3.2c0.6-0.2,1.1-0.3,1.7-0.5l0-1.8    C98.4,40.9,98.6,39.4,98.9,38z"/>
		<path class="st3" d="M81.1,21.6c-0.1,1-0.2,2-0.2,3.1c0,1,0.1,2,0.2,3h23.5c3.7-3.8,8.9-6.1,14.6-6.1H81.1z"/>
		<path class="st3" d="M120.6,16.6c-0.8-2-2-3.8-3.3-5.4c-4.9,1.6-10.2,2.5-15.7,2.5c-5.5,0-10.8-0.9-15.7-2.5    c-1.4,1.6-2.5,3.4-3.3,5.4c6,2.1,12.4,3.2,19.1,3.2C108.2,19.8,114.6,18.7,120.6,16.6z"/>
		<path class="st3" d="M113.4,7.7c-2.1-1.5-4.5-2.6-7-3.2c-1.5,0.5-3.1,0.8-4.8,0.8c-1.7,0-3.3-0.3-4.8-0.8c-2.6,0.6-4.9,1.7-7,3.2    c3.4,2.4,7.4,3.7,11.8,3.7C106,11.4,110.1,10.1,113.4,7.7z"/>
		<path class="st1" d="M120.5,32.8c-0.2,0.4-0.4,0.9-0.6,1.3c-0.1,0.1-0.1,0.2-0.2,0.4c-0.2,0.3-0.3,0.6-0.5,0.9    c-0.1,0.1-0.2,0.3-0.3,0.4c-0.2,0.3-0.3,0.5-0.5,0.8c-0.1,0.1-0.2,0.3-0.3,0.4c-0.2,0.3-0.4,0.6-0.7,0.8c0,0.1-0.1,0.1-0.1,0.2    c0,0,0,0,0,0c-3.1,3.7-7.5,6.2-12.5,7v6.1c0.4-0.4,0.8-0.7,1.2-1c0,0,0,0,0.1,0c0.1-0.1,0.2-0.2,0.4-0.3c0,0,0,0,0,0    c0.4-0.3,0.8-0.6,1.2-0.8c0,0,0,0,0,0c0.1-0.1,0.3-0.2,0.4-0.3l0.1,0c0.4-0.3,0.8-0.5,1.2-0.7c0,0,0,0,0,0    c0.1-0.1,0.3-0.1,0.4-0.2c0,0,0.1,0,0.1,0c0.6-0.3,1.1-0.5,1.7-0.8c0,0,0.1,0,0.1,0c0.1-0.1,0.3-0.1,0.4-0.2c0,0,0,0,0.1,0    c0.4-0.2,0.9-0.3,1.3-0.4c0,0,0.1,0,0.1,0c0.1,0,0.3-0.1,0.4-0.1c0,0,0.1,0,0.1,0c0.4-0.1,0.9-0.2,1.3-0.3c0.1,0,0.1,0,0.2,0    c0.1,0,0.3,0,0.4-0.1c0.1,0,0.1,0,0.2,0c0,0,0,0,0,0v0h0.1c0.1,0,0.2,0,0.3,0c0,0,0,0,0.1,0c0.3,0,0.6-0.1,0.8-0.1    c0.1,0,0.1,0,0.2,0c0.1,0,0.2,0,0.4,0c0.1,0,0.2,0,0.2,0c0.1,0,0.2,0,0.4,0c0.1,0,0.2,0,0.3,0c0.1,0,0.2,0,0.3,0v0h0    c0.1,0,0.2,0,0.3,0l1.5,0c4.9,0,8.8-4.3,8.8-9.2v-8.5c0,0-3,0-7.8,0c-0.3,1.7-0.7,3.4-1.4,5c0,0,0,0,0,0    C120.6,32.7,120.5,32.8,120.5,32.8z"/>
		<path class="st1" d="M120.6,32.6C120.6,32.6,120.6,32.6,120.6,32.6c0,0.1-0.1,0.1-0.1,0.2C120.5,32.8,120.6,32.7,120.6,32.6z"/>
		<path class="st2" d="M119.9,34.1c0.2-0.4,0.4-0.9,0.6-1.3C120.3,33.3,120.1,33.7,119.9,34.1z"/>
		<path class="st2" d="M118.4,36.6c0.2-0.3,0.4-0.5,0.5-0.8C118.7,36.1,118.6,36.3,118.4,36.6z"/>
		<path class="st2" d="M119.2,35.4c0.2-0.3,0.3-0.6,0.5-0.9C119.5,34.8,119.3,35.1,119.2,35.4z"/>
		<path class="st2" d="M117.4,37.8c0.2-0.3,0.4-0.5,0.7-0.8C117.9,37.3,117.6,37.5,117.4,37.8z"/>
		<path class="st2" d="M118.9,35.8c0.1-0.1,0.2-0.3,0.3-0.4C119.1,35.5,119,35.7,118.9,35.8z"/>
		<path class="st2" d="M118.1,37c0.1-0.1,0.2-0.3,0.3-0.4C118.3,36.7,118.2,36.8,118.1,37z"/>
		<path class="st2" d="M119.7,34.5c0.1-0.1,0.1-0.2,0.2-0.4C119.8,34.3,119.7,34.4,119.7,34.5z"/>
		<path class="st2" d="M117.4,37.8c0,0.1-0.1,0.1-0.1,0.2c0,0,0,0,0,0C117.3,37.9,117.4,37.9,117.4,37.8z"/>
		<path class="st2" d="M122,21.6h-2.8c-5.7,0-10.9,2.3-14.6,6.1c-0.6,0.6-1.1,1.2-1.6,1.8c-0.5,0.7-1,1.4-1.5,2.1    c-0.8,1.2-1.4,2.6-1.9,4c-0.3,0.8-0.5,1.6-0.7,2.4c-0.3,1.4-0.5,2.9-0.5,4.4l0,1.8l0,7.3c-3.1-3-7.1-5.1-11.6-5.8    c0,0-1.9-0.2-2.9-0.2l0,0c0,0-0.1,0-0.1,0v0c-1,0-3.1,0.2-3.1,0.2v6c0.9-0.2,1.8-0.3,2.8-0.3c8.2,0,14.8,6.6,14.9,14.8v3.2h6.3    v-3.4c0.1-8.2,6.7-14.8,14.9-14.8h1.2c8.2,0,14.9-6.7,14.9-14.9V21.6H122z M105.2,38.1c0.2-0.8,0.6-1.6,0.9-2.4    c0.7-1.4,1.6-2.7,2.7-3.8c0.6-0.6,1.4-1.2,2.1-1.7c1.4-1,3-1.7,4.7-2.1c-0.2,1-0.6,1.9-1,2.9c-0.7,1.5-1.7,2.8-2.8,4    c-0.5,0.5-1,0.9-1.6,1.3c-1.2,0.9-2.5,1.6-3.9,2.1c-0.5,0.2-0.9,0.3-1.4,0.4C105.1,38.6,105.1,38.3,105.2,38.1z M129.8,36.1    c0,4.9-4,9.2-8.8,9.2l-1.5,0c-0.1,0-0.2,0-0.3,0h0v0c-0.1,0-0.2,0-0.3,0c-0.1,0-0.2,0-0.3,0c-0.1,0-0.2,0-0.4,0    c-0.1,0-0.2,0-0.2,0c-0.1,0-0.2,0-0.4,0c-0.1,0-0.1,0-0.2,0c-0.3,0-0.6,0.1-0.8,0.1c0,0,0,0-0.1,0c-0.1,0-0.2,0-0.3,0h-0.1v0    c0,0,0,0,0,0c-0.1,0-0.1,0-0.2,0c-0.1,0-0.3,0-0.4,0.1c-0.1,0-0.1,0-0.2,0c-0.4,0.1-0.9,0.2-1.3,0.3c0,0-0.1,0-0.1,0    c-0.1,0-0.3,0.1-0.4,0.1c0,0-0.1,0-0.1,0c-0.5,0.1-0.9,0.3-1.3,0.4c0,0,0,0-0.1,0c-0.1,0.1-0.3,0.1-0.4,0.2c0,0-0.1,0-0.1,0    c-0.6,0.2-1.2,0.5-1.7,0.8c0,0-0.1,0-0.1,0c-0.1,0.1-0.3,0.1-0.4,0.2c0,0,0,0,0,0c-0.4,0.2-0.8,0.5-1.2,0.7l-0.1,0    c-0.1,0.1-0.3,0.2-0.4,0.3c0,0,0,0,0,0c-0.4,0.3-0.8,0.6-1.2,0.8c0,0,0,0,0,0c-0.1,0.1-0.2,0.2-0.4,0.3c0,0,0,0-0.1,0    c-0.4,0.3-0.8,0.7-1.2,1V45c5-0.8,9.4-3.4,12.5-7c0.1-0.1,0.1-0.1,0.1-0.2c0.2-0.3,0.4-0.5,0.7-0.8c0.1-0.1,0.2-0.3,0.3-0.4    c0.2-0.3,0.4-0.5,0.5-0.8c0.1-0.1,0.2-0.3,0.3-0.4c0.2-0.3,0.3-0.6,0.5-0.9c0.1-0.1,0.1-0.2,0.2-0.4c0.2-0.4,0.4-0.9,0.6-1.3    c0-0.1,0.1-0.1,0.1-0.2c0.7-1.6,1.1-3.2,1.4-5c4.8,0,7.8,0,7.8,0V36.1z"/>
	</g>
	<path class="st4" d="M12.1,18.3c2,1.2,4.5,0.5,5.6-1.4c1.2-2,0.5-4.5-1.4-5.6c-0.5-0.3-1.1-0.5-1.6-0.5c-1.6,1.9-3,4.1-3.8,6.4   C11.2,17.6,11.6,18,12.1,18.3z"/>
	<path class="st4" d="M23.2,11.6c2-1.1,2.7-3.6,1.6-5.6c-0.3-0.5-0.7-1-1.1-1.3c-2.4,0.8-4.6,2.1-6.5,3.7c0.1,0.6,0.2,1.1,0.5,1.6   C18.7,12,21.2,12.7,23.2,11.6z"/>
	<path class="st4" d="M20.2,23.1c1.9,1.2,4.5,0.5,5.6-1.4c1.2-2,0.5-4.5-1.4-5.6c-2-1.2-4.5-0.5-5.6,1.4   C17.6,19.4,18.2,22,20.2,23.1z"/>
	<path class="st4" d="M30.3,28.5c2.3,0,4.1-1.8,4.1-4.1c0-2.3-1.8-4.1-4.1-4.1c-2.3,0-4.1,1.8-4.1,4.1C26.2,26.6,28,28.5,30.3,28.5z   "/>
	<path class="st4" d="M11.5,28.3c2.3,0,4.1-1.8,4.2-4.1c0-2.3-1.8-4.1-4.1-4.2c-0.6,0-1.2,0.1-1.7,0.3c-0.3,1.3-0.4,2.6-0.4,4   c0,1.2,0.1,2.4,0.3,3.5C10.4,28.1,10.9,28.2,11.5,28.3z"/>
	<path class="st4" d="M50.8,21.3c0-0.2,0-0.4-0.1-0.6c-0.5-0.2-1.1-0.4-1.7-0.4c-1,0-2,0.4-2.7,1c0.6-0.1,1.2-0.1,1.8-0.1H50.8z"/>
	<path class="st4" d="M27.4,40.1c-0.8,0.7-1.3,1.8-1.3,3c0,0.6,0.1,1.2,0.3,1.7c0.3,0.1,0.6,0.1,0.8,0.1v-2.6   C27.2,41.5,27.3,40.8,27.4,40.1z"/>
	<path class="st4" d="M31.3,29.8c-0.3-0.1-0.7-0.2-1.1-0.2c-2.3,0-4.1,1.8-4.1,4.1c0,1.4,0.7,2.6,1.8,3.4c0.5-2.1,1.3-4,2.4-5.8   C30.6,30.8,31,30.3,31.3,29.8z"/>
	<path class="st4" d="M24.3,42.6c1.2-2,0.5-4.5-1.5-5.6c-2-1.2-4.5-0.5-5.6,1.5c-0.3,0.5-0.5,1.1-0.5,1.6c1.9,1.6,4.1,2.9,6.5,3.8   C23.6,43.5,24,43.1,24.3,42.6z"/>
	<path class="st4" d="M37.6,11.7c2,1.1,4.5,0.5,5.6-1.5c0.3-0.5,0.5-1.1,0.5-1.6c-1.9-1.6-4.1-2.9-6.5-3.8c-0.5,0.3-0.9,0.8-1.2,1.3   C35,8.1,35.7,10.6,37.6,11.7z"/>
	<path class="st4" d="M43,17.1c1.1,2,3.6,2.6,5.6,1.5c0.5-0.3,0.9-0.7,1.3-1.2c-0.8-2.4-2.1-4.6-3.7-6.5c-0.6,0.1-1.1,0.2-1.6,0.5   C42.5,12.6,41.9,15.1,43,17.1z"/>
	<path class="st4" d="M30.3,9.8c2.3,0,4.1-1.8,4.1-4.1c0-0.6-0.1-1.2-0.4-1.7c-1.2-0.2-2.5-0.3-3.7-0.3c-1.3,0-2.5,0.1-3.7,0.3   c-0.2,0.5-0.4,1.1-0.4,1.7C26.2,7.9,28,9.8,30.3,9.8z"/>
	<path class="st4" d="M42,17.7c-1.1-2-3.6-2.6-5.6-1.5c-2,1.1-2.6,3.6-1.5,5.6c0.7,1.3,2,2,3.3,2.1c1.1-0.6,2.2-1.1,3.4-1.5   C42.6,21,42.9,19.2,42,17.7z"/>
	<path class="st4" d="M17.6,31.5c-1.1-2-3.6-2.7-5.6-1.6c-0.5,0.3-1,0.7-1.3,1.1c0.8,2.4,2.1,4.6,3.7,6.5c0.6-0.1,1.1-0.2,1.6-0.5   C18,36,18.7,33.5,17.6,31.5z"/>
	<path class="st4" d="M25.7,26.9c-1.1-2-3.6-2.7-5.6-1.6c-2,1.1-2.7,3.6-1.6,5.6c1.1,2,3.6,2.7,5.6,1.6   C26.2,31.4,26.9,28.9,25.7,26.9z"/>
	<path class="st4" d="M30.3,19.1c2.3,0,4.1-1.8,4.1-4.1c0-2.3-1.8-4.1-4.1-4.1c-2.3,0-4.1,1.8-4.1,4.1C26.2,17.3,28,19.1,30.3,19.1z   "/>
	<path class="st1" d="M33.6,44.9V51c0.4-0.4,0.8-0.7,1.2-1c0,0,0,0,0.1,0c0.1-0.1,0.2-0.2,0.4-0.3c0,0,0,0,0,0   c0.4-0.3,0.8-0.6,1.2-0.9c0,0,0,0,0,0c0.1-0.1,0.3-0.2,0.4-0.3l0.1,0c0.4-0.3,0.8-0.5,1.2-0.7c0,0,0,0,0,0c0.1-0.1,0.3-0.1,0.4-0.2   c0,0,0.1,0,0.1,0c0.6-0.3,1.2-0.6,1.7-0.8c0,0,0.1,0,0.1,0c0.1-0.1,0.3-0.1,0.4-0.2c0,0,0,0,0.1,0c0.4-0.2,0.9-0.3,1.3-0.4   c0,0,0.1,0,0.1,0c0.1,0,0.3-0.1,0.4-0.1c0,0,0.1,0,0.1,0c0.4-0.1,0.9-0.2,1.3-0.3c0.1,0,0.1,0,0.2,0c0.1,0,0.3,0,0.4-0.1   c0.1,0,0.1,0,0.2,0c0,0,0,0,0,0v0h0.1c0.1,0,0.2,0,0.3,0c0,0,0,0,0.1,0c0.3,0,0.6-0.1,0.8-0.1c0.1,0,0.1,0,0.2,0c0.1,0,0.2,0,0.4,0   c0.1,0,0.2,0,0.2,0c0.1,0,0.2,0,0.4,0c0.1,0,0.2,0,0.3,0c0.1,0,0.2,0,0.3,0v0h0c0.1,0,0.2,0,0.3,0l1.5,0c4.9,0,8.9-4.3,8.9-9.3   v-8.5c0,0-3,0-7.8,0C49.6,36.4,42.6,43.5,33.6,44.9z"/>
	<path class="st2" d="M50.8,21.3h-2.7c-0.6,0-1.2,0-1.8,0.1c-1.7,0.1-3.3,0.5-4.8,1c-1.2,0.4-2.3,0.9-3.4,1.5c-2.7,1.5-5,3.5-6.8,6   c-0.4,0.5-0.7,1-1,1.5c-1.1,1.8-1.9,3.7-2.4,5.8c-0.2,1-0.4,2-0.5,3c-0.1,0.7-0.1,1.4-0.1,2.1v2.6v6.5c-3.1-3.1-7.2-5.2-11.7-5.8   c0,0-1.9-0.2-2.9-0.2c0,0,0,0,0,0c0,0-0.1,0-0.1,0v0c-1,0-3.1,0.2-3.1,0.2v6c0.9-0.2,1.8-0.3,2.8-0.3c8.3,0,14.9,6.7,15,14.9v3.2   h6.4V66c0.1-8.3,6.7-14.9,15-14.9h1.3c8.3,0,15-6.7,15-15V21.3H50.8z M36.7,32.8c0.3-0.4,0.6-0.8,1-1.1c1.3-1.3,2.9-2.4,4.7-3.2   c0.7-0.3,1.4-0.5,2.2-0.7c-0.3,1.2-0.7,2.3-1.3,3.4c-0.2,0.4-0.4,0.8-0.7,1.1c-0.6,0.9-1.2,1.7-1.9,2.4c-0.8,0.8-1.8,1.6-2.8,2.2   c-0.2,0.1-0.5,0.3-0.7,0.4c-1.1,0.6-2.2,1-3.4,1.3C34.4,36.4,35.4,34.5,36.7,32.8z M58.8,35.9c0,4.9-4,9.3-8.9,9.3l-1.5,0   c-0.1,0-0.2,0-0.3,0h0v0c-0.1,0-0.2,0-0.3,0c-0.1,0-0.2,0-0.3,0c-0.1,0-0.2,0-0.4,0c-0.1,0-0.2,0-0.2,0c-0.1,0-0.2,0-0.4,0   c-0.1,0-0.1,0-0.2,0c-0.3,0-0.6,0.1-0.8,0.1c0,0,0,0-0.1,0c-0.1,0-0.2,0-0.3,0h-0.1v0c0,0,0,0,0,0c-0.1,0-0.1,0-0.2,0   c-0.1,0-0.3,0-0.4,0.1c-0.1,0-0.1,0-0.2,0c-0.4,0.1-0.9,0.2-1.3,0.3c0,0-0.1,0-0.1,0c-0.1,0-0.3,0.1-0.4,0.1c0,0-0.1,0-0.1,0   c-0.5,0.1-0.9,0.3-1.3,0.4c0,0,0,0-0.1,0c-0.1,0.1-0.3,0.1-0.4,0.2c0,0-0.1,0-0.1,0c-0.6,0.2-1.2,0.5-1.7,0.8c0,0-0.1,0-0.1,0   c-0.1,0.1-0.3,0.1-0.4,0.2c0,0,0,0,0,0c-0.4,0.2-0.8,0.5-1.2,0.7l-0.1,0c-0.1,0.1-0.3,0.2-0.4,0.3c0,0,0,0,0,0   c-0.4,0.3-0.8,0.6-1.2,0.9c0,0,0,0,0,0c-0.1,0.1-0.2,0.2-0.4,0.3c0,0,0,0-0.1,0c-0.4,0.3-0.8,0.7-1.2,1v-6.1   c8.9-1.4,16-8.5,17.3-17.5c4.8,0,7.8,0,7.8,0V35.9z"/>
	<path class="st5" d="M37.5,37.1c-0.1,0.1-0.2,0.2-0.3,0.2c0.2-0.1,0.5-0.3,0.7-0.4C37.8,37,37.7,37,37.5,37.1z"/>
	<path class="st5" d="M42.7,32.3c0.2-0.4,0.5-0.7,0.7-1.1c-0.1,0.2-0.3,0.3-0.4,0.5C42.8,31.9,42.7,32.1,42.7,32.3z"/>
	<g>
		<path class="st6" d="M244,18.7c-3.3,0-5.9,2.7-5.9,5.9c0,3.3,2.6,5.9,5.9,5.9c0.2,0,0.4,0,0.6,0c1.4-2,3.2-3.8,5.2-5.3    c0-0.2,0-0.4,0-0.6C249.9,21.4,247.3,18.7,244,18.7z M244,28.1c-1.9,0-3.4-1.5-3.4-3.4c0-1.9,1.5-3.4,3.4-3.4    c1.9,0,3.4,1.5,3.4,3.4C247.4,26.6,245.9,28.1,244,28.1z"/>
		<path class="st6" d="M244,10.1c-8.1,0-14.6,6.5-14.6,14.6c0,7.1,5.1,13,11.8,14.3c0.1-0.9,0.3-1.7,0.6-2.5    c-5.6-1-9.8-5.9-9.8-11.8c0-6.6,5.4-12,12-12c5.9,0,10.8,4.2,11.8,9.8c0.8-0.2,1.7-0.4,2.5-0.6C257,15.1,251.1,10.1,244,10.1z"/>
		<path class="st7" d="M244.7,30.6c-0.2,0-0.4,0-0.6,0c-3.3,0-5.9-2.6-5.9-5.9c0-3.3,2.6-5.9,5.9-5.9c3.3,0,5.9,2.7,5.9,5.9    c0,0.2,0,0.4,0,0.6c1.8-1.2,3.8-2.2,5.9-2.9c-1-5.6-5.9-9.8-11.8-9.8c-6.6,0-12,5.4-12,12c0,5.9,4.2,10.8,9.8,11.8    c0.5-1.7,1.3-3.4,2.2-4.9C244.2,31.2,244.4,30.9,244.7,30.6z"/>
		<path class="st7" d="M241.2,39c-6.7-1.3-11.8-7.2-11.8-14.3c0-8.1,6.5-14.6,14.6-14.6c7.1,0,13,5.1,14.3,11.8    c1.1-0.2,2.2-0.3,3.4-0.3h2.6c-1.5-9.9-10-17.5-20.3-17.5c-11.4,0-20.6,9.2-20.6,20.6C223.4,35,231,43.5,241,45l0-2.6    C241,41.2,241.1,40.1,241.2,39z"/>
		<path class="st7" d="M244,21.3c-1.9,0-3.4,1.5-3.4,3.4c0,1.9,1.5,3.4,3.4,3.4c1.9,0,3.4-1.5,3.4-3.4    C247.4,22.8,245.9,21.3,244,21.3z"/>
		<path class="st8" d="M247.3,45v6.1c0.4-0.4,0.8-0.7,1.1-1c0,0,0,0,0.1,0c0.1-0.1,0.2-0.2,0.4-0.3c0,0,0,0,0,0    c0.4-0.3,0.8-0.6,1.2-0.8c0,0,0,0,0,0c0.1-0.1,0.3-0.2,0.4-0.3l0.1,0c0.4-0.3,0.8-0.5,1.2-0.7c0,0,0,0,0,0    c0.1-0.1,0.3-0.1,0.4-0.2c0,0,0.1,0,0.1,0c0.6-0.3,1.1-0.5,1.7-0.8c0,0,0.1,0,0.1,0c0.1-0.1,0.3-0.1,0.4-0.2c0,0,0,0,0.1,0    c0.4-0.2,0.9-0.3,1.3-0.4c0,0,0.1,0,0.1,0c0.1,0,0.3-0.1,0.4-0.1c0,0,0.1,0,0.1,0c0.4-0.1,0.9-0.2,1.3-0.3c0.1,0,0.1,0,0.2,0    c0.1,0,0.3,0,0.4-0.1c0.1,0,0.1,0,0.2,0c0,0,0,0,0.1,0v0h0.1c0.1,0,0.2,0,0.3,0c0,0,0,0,0.1,0c0.3,0,0.6-0.1,0.8-0.1    c0.1,0,0.1,0,0.2,0c0.1,0,0.2,0,0.4,0c0.1,0,0.2,0,0.2,0c0.1,0,0.2,0,0.4,0c0.1,0,0.2,0,0.3,0c0.1,0,0.2,0,0.3,0v0h0    c0.1,0,0.2,0,0.3,0l1.5,0c4.9,0,8.8-4.3,8.8-9.2v-8.5c0,0-3,0-7.8,0C263.1,36.6,256.1,43.6,247.3,45z"/>
		<path class="st2" d="M257.8,29.3c-0.1,0.3-0.2,0.5-0.3,0.8C257.6,29.8,257.7,29.6,257.8,29.3z"/>
		<path class="st2" d="M264.3,21.6h-2.6c-1.1,0-2.3,0.1-3.4,0.3c-0.9,0.1-1.7,0.3-2.5,0.6c-2.1,0.6-4.1,1.6-5.9,2.9    c-2,1.4-3.8,3.2-5.2,5.3c-0.2,0.3-0.4,0.7-0.7,1c-0.9,1.5-1.7,3.2-2.2,4.9c-0.2,0.8-0.4,1.7-0.6,2.5c-0.2,1.1-0.3,2.2-0.3,3.4    l0,2.6l0,6.5c-3.1-3-7.1-5.1-11.6-5.7c0,0-1.9-0.2-2.9-0.2c0,0,0,0,0,0c0,0,0,0-0.1,0v0c-1,0-3.1,0.2-3.1,0.2v5.9    c0.9-0.2,1.8-0.3,2.8-0.3c8.2,0,14.8,6.6,14.9,14.8v3.1h6.3V66c0.1-8.2,6.7-14.8,14.9-14.8h1.2c8.2,0,14.9-6.7,14.9-14.9V21.6    H264.3z M251.4,31.9c1.1-1.1,2.4-2,3.8-2.7c1-0.5,2-0.9,3.1-1.1c0,0,0,0,0,0c0,0.1-0.1,0.2-0.1,0.3c-0.1,0.3-0.2,0.7-0.3,1    c-0.1,0.3-0.2,0.5-0.3,0.8c0,0,0,0.1,0,0.1c-0.2,0.4-0.4,0.9-0.6,1.3c0,0,0,0,0,0.1c-0.7,1.2-1.5,2.4-2.5,3.4    c-1.9,1.9-4.2,3.2-6.8,3.9c0.3-1.1,0.6-2.1,1.1-3C249.3,34.3,250.2,33,251.4,31.9z M272.2,36.1c0,4.9-4,9.2-8.8,9.2l-1.5,0    c-0.1,0-0.2,0-0.3,0h0v0c-0.1,0-0.2,0-0.3,0c-0.1,0-0.2,0-0.3,0c-0.1,0-0.2,0-0.4,0c-0.1,0-0.2,0-0.2,0c-0.1,0-0.2,0-0.4,0    c-0.1,0-0.1,0-0.2,0c-0.3,0-0.6,0.1-0.8,0.1c0,0,0,0-0.1,0c-0.1,0-0.2,0-0.3,0h-0.1v0c0,0,0,0-0.1,0c-0.1,0-0.1,0-0.2,0    c-0.1,0-0.3,0-0.4,0.1c-0.1,0-0.1,0-0.2,0c-0.4,0.1-0.9,0.2-1.3,0.3c0,0-0.1,0-0.1,0c-0.1,0-0.3,0.1-0.4,0.1c0,0-0.1,0-0.1,0    c-0.4,0.1-0.9,0.3-1.3,0.4c0,0,0,0-0.1,0c-0.1,0.1-0.3,0.1-0.4,0.2c0,0-0.1,0-0.1,0c-0.6,0.2-1.2,0.5-1.7,0.8c0,0-0.1,0-0.1,0    c-0.1,0.1-0.3,0.1-0.4,0.2c0,0,0,0,0,0c-0.4,0.2-0.8,0.5-1.2,0.7l-0.1,0c-0.1,0.1-0.3,0.2-0.4,0.3c0,0,0,0,0,0    c-0.4,0.3-0.8,0.5-1.2,0.8c0,0,0,0,0,0c-0.1,0.1-0.2,0.2-0.4,0.3c0,0,0,0-0.1,0c-0.4,0.3-0.8,0.7-1.1,1V45    c8.9-1.4,15.9-8.4,17.2-17.3c4.8,0,7.8,0,7.8,0V36.1z"/>
		<path class="st5" d="M257.5,30.1c0,0,0,0.1,0,0.1C257.5,30.2,257.5,30.1,257.5,30.1z"/>
		<path class="st5" d="M258.2,28.1C258.2,28.1,258.2,28.1,258.2,28.1c0,0.1-0.1,0.2-0.1,0.3C258.1,28.2,258.2,28.2,258.2,28.1z"/>
	</g>
	<g>
		<path class="st2" d="M9.6,76.8h11.2l9.6,20.1c2.5,5.3,4.5,10.6,5.5,14.2c-0.4-3.9-0.7-10.3-0.8-13.8l-0.2-20.5h9.6V127H33.9    l-8.6-19.2c-2.7-6.3-5.8-13.4-6.8-16.5c0.4,4.1,0.4,10,0.5,14.2l0.3,21.4H9.6V76.8z"/>
		<path class="st2" d="M77,117.2l3.8,5.8c-4.3,3.5-8.7,5.1-13.9,5.1c-10.6,0-17.5-7.5-17.5-19.1c0-6.6,1.4-11,4.6-14.7    c3-3.4,6.7-5,11.6-5c4.3,0,8.3,1.4,10.7,3.9c3.4,3.5,4.9,8.4,4.9,16.2c0,0.8,0,1.1,0,2.2H59.8v0.3c0,5.7,2.8,9,7.8,9    C70.9,120.9,74,119.6,77,117.2z M60,104.5h11.2v-0.4c0-2.7-0.3-4.2-1.2-5.6c-0.9-1.4-2.3-2.2-4.3-2.2c-3.7,0-5.8,2.9-5.8,8V104.5z    "/>
		<path class="st2" d="M120.8,87.9l4,6.1c-2.1,2-4.1,2.7-6.8,2.7c-0.9,0-1.3-0.1-2.5-0.2c1.4,1.7,2.2,3.6,2.2,6.1    c0,6.4-5.8,11-13.6,11c-0.4,0-0.7,0-1.4-0.1c-2.5,1.2-3.8,2-3.8,3c0,0.5,0.6,0.9,1.6,0.9l5.2,0.1c5.6,0.1,8.6,0.9,11.2,3.3    c2.2,2,3.2,4.5,3.2,7.9c0,3.1-0.9,5.5-3,7.7c-3.2,3.5-8.8,4.8-14.6,4.8c-5.3,0-10.7-0.9-14-4c-2-1.9-3-4-3-6.6c0-2,0.5-3,0.9-3.8    h8.9c-0.3,0.8-0.4,1.1-0.4,2.4c0,3,2.5,4.5,6.9,4.5c2.7,0,4.8-0.4,6.1-1.2c1.4-0.9,2.3-2.3,2.3-3.8c0-1.4-0.7-2.7-1.7-3.3    c-1-0.5-2.4-0.9-5.1-1.1c-0.5,0-1.9-0.1-4.1-0.1c-4.3-0.1-7.1-0.5-8.9-1.2c-0.9-0.4-1.6-1-2.1-1.8c-0.4-0.9-0.7-1.9-0.7-3    c0-1.4,0.4-2.5,1.2-3.4c1.1-1.2,3.5-2.3,5.6-2.8c-5.3-1.4-7.9-4.8-7.9-10.3c0-7.6,6.1-12.5,15.6-12.5c2.1,0,4,0.2,6.6,0.9    c2.7,0.6,3.3,0.8,4.6,0.8C115.9,91.1,118.6,90,120.8,87.9z M101.9,96.5c-3.7,0-5.8,2-5.8,5.5c0,3.8,2.3,5.3,5.7,5.3    c3.8,0,5.9-1.9,5.9-5.3C107.8,98.5,105.6,96.5,101.9,96.5z"/>
		<path class="st2" d="M141.8,89.3c5.3,0,9.4,1.8,12.6,5.6c3,3.5,4.3,7.5,4.3,13.5c0,6.4-1.4,10.7-4.6,14.3    c-2.8,3.2-6.5,5.1-12.2,5.1c-10,0-16.6-7.5-16.6-19.1C125.2,97,131.9,89.3,141.8,89.3z M142,96.5c-2.3,0-4.2,1.4-5,3.8    c-0.6,1.9-1,4.5-1,8.2c0,4.3,0.4,7.4,1.2,9.3c0.9,2,3,3,4.9,3c4.2,0,6-3.7,6-12.5c0-5-0.7-8.2-2-9.9    C145.2,97.2,143.7,96.5,142,96.5z"/>
		<path class="st2" d="M190.7,93.2l-4.7,6.4c-1.9-1.8-4-2.9-5.9-2.9c-4.3,0-6.3,3.8-6.3,12.4c0,4.8,0.6,7.7,1.9,9.3    c1,1.3,2.7,2.1,4.3,2.1c2.2,0,4.3-0.9,6.6-3l0.6-0.5l4.4,5.9c-1.4,1.4-2.1,1.9-3.4,2.7c-2.6,1.5-5.5,2.3-9,2.3    c-10.2,0-16.1-7.1-16.1-19.1c0-8.5,3.2-14.2,7.6-17.1c2.5-1.7,6.1-2.7,9.2-2.7c2.5,0,5.1,0.6,7.1,1.7    C188.5,91.3,189.1,91.8,190.7,93.2z"/>
		<path class="st2" d="M200.8,73.9c3.3,0,5.8,2.7,5.8,6c0,3.3-2.7,6-6,6c-3.2,0-5.9-2.7-5.9-6C194.7,76.5,197.4,73.9,200.8,73.9z     M195.8,90.7l9.7-1.5V127h-9.7V90.7z"/>
		<path class="st2" d="M228.3,89.3c5.3,0,9.4,1.8,12.6,5.6c3,3.5,4.3,7.5,4.3,13.5c0,6.4-1.4,10.7-4.6,14.3    c-2.8,3.2-6.5,5.1-12.2,5.1c-10,0-16.6-7.5-16.6-19.1C211.7,97,218.3,89.3,228.3,89.3z M228.4,96.5c-2.3,0-4.2,1.4-5,3.8    c-0.6,1.9-1,4.5-1,8.2c0,4.3,0.4,7.4,1.2,9.3c0.9,2,3,3,4.9,3c4.2,0,6-3.7,6-12.5c0-5-0.7-8.2-1.9-9.9    C231.7,97.2,230.1,96.5,228.4,96.5z"/>
		<path class="st2" d="M277.1,92.5l-3.2,6.5c-3.7-1.9-6.4-2.7-9.1-2.7c-2.8,0-4.7,1.4-4.7,3.6c0,1.9,1.2,2.9,4.6,3.8l4.5,1.2    c4.6,1.2,6.1,2.5,7.4,4.2c1.4,1.7,2,3.8,2,6.3c0,7.7-6.4,12.9-15.8,12.9c-4.6,0-9.5-1.4-14.9-4.3l3.5-7.1c3,1.8,8.1,4.2,12.3,4.2    c2.7,0,4.9-1.8,4.9-4.2c0-2.5-1.8-3.8-5.7-4.5l-4.3-0.8c-2.5-0.4-5.5-2.2-6.8-3.8c-1.3-1.6-2.1-4.3-2.1-6.6    c0-7.2,5.7-12.1,14.3-12.1C269.8,89,273.7,90.8,277.1,92.5z"/>
	</g>
</svg>